<?xml version="1.0" standalone="no"?>
<!DOCTYPE svg PUBLIC "-//W3C//DTD SVG 20010904//EN"
 "http://www.w3.org/TR/2001/REC-SVG-20010904/DTD/svg10.dtd">
<svg version="1.0" xmlns="http://www.w3.org/2000/svg"
 width="188.000000pt" height="188.000000pt" viewBox="0 0 188.000000 188.000000"
 preserveAspectRatio="xMidYMid meet">

<g transform="translate(0.000000,188.000000) scale(0.100000,-0.100000)"
fill="#000000" stroke="none">
<path d="M1160 1752 c-208 -54 -340 -232 -340 -458 0 -47 6 -99 15 -124 8 -23
12 -47 8 -54 -3 -6 -36 -42 -73 -81 -598 -627 -639 -675 -640 -746 0 -63 44
-134 102 -165 15 -8 51 -14 81 -14 44 0 62 6 94 29 22 16 181 179 355 362 173
184 322 340 331 348 9 7 24 11 32 7 49 -18 150 -26 208 -16 182 33 318 165
367 356 22 87 24 123 10 174 -21 74 -21 74 -150 -57 -117 -121 -120 -123 -163
-123 -88 0 -150 18 -179 51 -30 35 -48 97 -48 162 0 55 51 137 152 246 38 42
67 82 66 91 -6 31 -129 38 -228 12z m-774 -1428 c16 -63 -33 -112 -83 -84 -38
22 -49 44 -37 77 19 56 106 62 120 7z"/>
</g>
</svg>
