<?xml version="1.0" standalone="no"?>
<!DOCTYPE svg PUBLIC "-//W3C//DTD SVG 20010904//EN"
 "http://www.w3.org/TR/2001/REC-SVG-20010904/DTD/svg10.dtd">
<svg version="1.0" xmlns="http://www.w3.org/2000/svg"
 width="188.000000pt" height="188.000000pt" viewBox="0 0 188.000000 188.000000"
 preserveAspectRatio="xMidYMid meet">

<g transform="translate(0.000000,188.000000) scale(0.100000,-0.100000)"
fill="#000000" stroke="none">
<path d="M793 1826 c-92 -30 -130 -54 -192 -122 -63 -69 -107 -158 -125 -252
-10 -53 -21 -81 -40 -101 -25 -26 -26 -32 -26 -135 0 -106 1 -108 29 -137 18
-17 40 -29 56 -29 42 0 62 -16 68 -57 4 -21 22 -69 40 -108 40 -83 103 -145
185 -183 49 -23 70 -27 147 -27 76 0 99 5 147 27 109 51 194 155 229 283 16
59 17 60 57 66 76 10 102 56 102 178 0 70 -3 83 -25 109 -17 20 -30 55 -39
104 -41 214 -189 366 -386 397 -96 16 -147 13 -227 -13z m515 -603 l3 -43
-365 0 -366 0 0 45 0 45 363 -2 362 -3 3 -42z"/>
<path d="M580 700 c-17 -10 -9 -105 21 -246 23 -109 21 -134 -10 -134 -31 0
-52 41 -82 159 l-27 106 -45 -2 c-24 -2 -78 -15 -118 -29 -127 -46 -180 -90
-226 -189 -22 -49 -28 -78 -31 -158 -7 -154 -114 -137 868 -137 832 0 837 0
864 21 24 19 26 27 26 92 0 120 -37 222 -102 284 -62 60 -294 147 -317 119 -5
-6 -23 -64 -39 -130 -31 -120 -41 -138 -77 -134 -25 4 -26 41 -2 150 22 98 26
203 10 219 -10 10 -24 5 -65 -23 -116 -77 -186 -100 -303 -99 -98 0 -168 23
-246 82 -71 53 -83 59 -99 49z"/>
</g>
</svg>
