<?xml version="1.0" standalone="no"?>
<!DOCTYPE svg PUBLIC "-//W3C//DTD SVG 20010904//EN"
 "http://www.w3.org/TR/2001/REC-SVG-20010904/DTD/svg10.dtd">
<svg version="1.0" xmlns="http://www.w3.org/2000/svg"
 width="188.000000pt" height="188.000000pt" viewBox="0 0 188.000000 188.000000"
 preserveAspectRatio="xMidYMid meet">

<g transform="translate(0.000000,188.000000) scale(0.100000,-0.100000)"
fill="#000000" stroke="none">
<path d="M1578 1800 c-30 -31 -31 -38 -13 -96 5 -18 -10 -39 -83 -115 l-89
-93 -42 13 c-36 10 -46 10 -65 -3 -45 -29 -687 -681 -691 -701 -18 -93 -17
-90 -213 -289 -137 -140 -192 -202 -192 -218 0 -39 235 -238 281 -238 23 0 61
41 86 92 11 24 58 121 103 216 46 94 87 172 91 172 4 0 12 -23 18 -50 6 -28
23 -87 37 -132 l26 -80 44 5 c53 6 121 48 129 80 4 14 -5 59 -21 107 -27 80
-27 84 -10 94 11 6 39 28 63 49 24 20 47 37 51 37 4 0 23 -11 42 -24 82 -55
318 -133 350 -116 25 13 84 197 73 226 -3 7 -37 23 -77 35 -101 30 -208 81
-261 125 -25 21 -45 42 -45 46 0 5 46 58 103 119 226 245 229 249 223 282 -5
27 2 38 82 121 139 144 182 196 182 222 0 29 -105 144 -132 144 -11 0 -33 -14
-50 -30z m-578 -1079 c0 -36 -37 -71 -76 -71 -52 0 -50 18 7 70 56 49 69 49
69 1z"/>
</g>
</svg>
