<?xml version="1.0" standalone="no"?>
<!DOCTYPE svg PUBLIC "-//W3C//DTD SVG 20010904//EN"
 "http://www.w3.org/TR/2001/REC-SVG-20010904/DTD/svg10.dtd">
<svg version="1.0" xmlns="http://www.w3.org/2000/svg"
 width="188.000000pt" height="188.000000pt" viewBox="0 0 188.000000 188.000000"
 preserveAspectRatio="xMidYMid meet">

<g transform="translate(0.000000,188.000000) scale(0.100000,-0.100000)"
fill="#000000" stroke="none">
<path d="M640 1730 l-465 -5 0 -507 c0 -331 3 -508 10 -509 6 -1 24 21 40 49
75 128 150 184 264 198 31 3 64 10 73 15 26 14 668 735 668 751 0 11 -117 13
-590 8z"/>
<path d="M1615 1716 c-37 -16 -782 -766 -794 -798 -2 -6 2 -14 10 -18 7 -5 60
-55 117 -112 l103 -103 25 30 c30 36 151 174 260 300 173 198 366 442 409 517
36 62 33 110 -7 153 -38 40 -80 51 -123 31z"/>
<path d="M1398 758 c-216 -226 -243 -258 -264 -315 -57 -157 -77 -205 -109
-257 -23 -39 -30 -58 -22 -62 7 -2 140 -3 297 -2 l285 3 0 399 c0 286 -3 400
-11 403 -6 2 -86 -74 -176 -169z"/>
<path d="M554 789 c-47 -14 -120 -84 -147 -142 -14 -29 -37 -92 -52 -142 -47
-154 -82 -207 -157 -239 -85 -34 -21 -95 133 -126 152 -32 256 -23 378 31 109
48 194 154 237 297 23 75 24 88 12 110 -23 45 -158 170 -211 197 -54 26 -131
32 -193 14z"/>
</g>
</svg>
