<?xml version="1.0" standalone="no"?>
<!DOCTYPE svg PUBLIC "-//W3C//DTD SVG 20010904//EN"
 "http://www.w3.org/TR/2001/REC-SVG-20010904/DTD/svg10.dtd">
<svg version="1.0" xmlns="http://www.w3.org/2000/svg"
 width="188.000000pt" height="188.000000pt" viewBox="0 0 188.000000 188.000000"
 preserveAspectRatio="xMidYMid meet">

<g transform="translate(0.000000,188.000000) scale(0.100000,-0.100000)"
fill="#000000" stroke="none">
<path d="M198 1822 c-51 -31 -58 -62 -58 -264 0 -166 2 -186 20 -216 39 -64
18 -62 782 -61 510 0 702 3 727 12 19 7 44 25 55 40 19 26 21 44 24 217 4 210
-3 241 -57 273 -27 16 -88 17 -748 17 -658 -1 -720 -2 -745 -18z m277 -197
c36 -35 34 -88 -4 -126 -33 -32 -67 -37 -110 -14 -47 24 -56 101 -16 140 18
19 35 25 65 25 30 0 47 -6 65 -25z"/>
<path d="M202 1193 c-57 -28 -62 -50 -62 -258 0 -206 6 -232 60 -260 26 -13
119 -15 756 -13 l726 3 34 37 34 38 0 191 c0 162 -3 195 -17 220 -36 61 -13
59 -790 59 -633 0 -711 -2 -741 -17z m277 -189 c31 -39 28 -89 -8 -125 -40
-40 -82 -39 -123 1 -27 27 -30 36 -25 73 7 54 35 77 92 77 35 0 48 -5 64 -26z"/>
<path d="M176 536 l-36 -33 0 -198 0 -197 34 -34 34 -34 731 0 c806 0 763 -3
797 61 21 41 20 368 -1 409 -33 63 12 60 -792 60 l-732 0 -35 -34z m296 -162
c43 -40 26 -134 -29 -155 -56 -21 -110 11 -119 72 -12 86 85 140 148 83z"/>
</g>
</svg>
