<?xml version="1.0" standalone="no"?>
<!DOCTYPE svg PUBLIC "-//W3C//DTD SVG 20010904//EN"
 "http://www.w3.org/TR/2001/REC-SVG-20010904/DTD/svg10.dtd">
<svg version="1.0" xmlns="http://www.w3.org/2000/svg"
 width="188.000000pt" height="188.000000pt" viewBox="0 0 188.000000 188.000000"
 preserveAspectRatio="xMidYMid meet">

<g transform="translate(0.000000,188.000000) scale(0.100000,-0.100000)"
fill="#000000" stroke="none">
<path d="M995 1679 c-77 -28 -194 -71 -260 -97 l-120 -47 -3 -648 -2 -648 -63
3 -62 3 -3 468 c-2 404 -4 467 -17 467 -20 0 -304 -136 -327 -157 -17 -15 -18
-43 -18 -400 l0 -383 -27 -1 c-67 -3 -67 -3 -74 -41 -3 -20 -3 -56 0 -80 l6
-43 928 -3 927 -2 0 75 c0 82 -9 95 -69 95 l-31 0 0 403 0 404 -22 20 c-23 20
-298 168 -394 212 -29 13 -57 20 -63 17 -8 -5 -11 -160 -11 -532 l0 -524 -60
0 -60 0 -2 742 c-3 651 -5 743 -18 745 -8 1 -78 -20 -155 -48z m-35 -864 l0
-575 -70 0 -70 0 0 575 0 575 70 0 70 0 0 -575z m640 -265 l0 -310 -60 0 -60
0 0 310 0 310 60 0 60 0 0 -310z"/>
</g>
</svg>
