<?xml version="1.0" standalone="no"?>
<!DOCTYPE svg PUBLIC "-//W3C//DTD SVG 20010904//EN"
 "http://www.w3.org/TR/2001/REC-SVG-20010904/DTD/svg10.dtd">
<svg version="1.0" xmlns="http://www.w3.org/2000/svg"
 width="188.000000pt" height="188.000000pt" viewBox="0 0 188.000000 188.000000"
 preserveAspectRatio="xMidYMid meet">

<g transform="translate(0.000000,188.000000) scale(0.100000,-0.100000)"
fill="#000000" stroke="none">
<path d="M1768 1805 c-11 -11 -533 -197 -553 -197 -11 0 -141 43 -289 96 -148
53 -281 96 -296 96 -24 0 -213 -62 -460 -152 -47 -17 -95 -40 -108 -51 l-22
-20 0 -718 c0 -659 1 -719 17 -734 30 -30 69 -19 486 139 l98 37 142 -51 c78
-28 202 -74 276 -101 74 -27 149 -49 167 -49 18 0 82 20 141 44 59 24 169 65
243 91 185 64 188 65 215 87 l25 19 0 724 c0 706 0 725 -19 735 -21 11 -54 13
-63 5z m-1198 -774 c3 -299 3 -546 0 -550 -9 -14 -45 -29 -196 -85 -82 -30
-156 -57 -164 -60 -13 -6 -15 60 -12 557 l2 564 33 11 c17 6 95 33 172 61 77
27 145 49 150 47 6 -2 12 -196 15 -545z m368 469 l202 -72 0 -544 c0 -514 -1
-544 -18 -544 -9 0 -104 30 -211 68 l-193 68 -2 552 c0 364 2 551 9 549 6 -2
101 -37 213 -77z m752 -489 l0 -548 -42 -16 c-198 -71 -354 -124 -360 -120 -5
2 -8 251 -8 553 0 608 -6 552 60 565 21 4 60 17 230 79 52 19 101 35 108 36 9
0 12 -116 12 -549z"/>
<path d="M1352 904 c-33 -23 -28 -62 14 -105 l37 -37 -37 -45 c-40 -49 -45
-76 -18 -100 29 -26 48 -20 83 24 l32 40 44 -43 c42 -42 44 -42 71 -28 40 23
39 54 -3 106 l-37 45 41 44 c23 25 41 49 41 53 0 18 -42 62 -58 62 -9 0 -33
-19 -53 -41 l-37 -42 -37 42 c-41 45 -50 48 -83 25z"/>
</g>
</svg>
