<?xml version="1.0" standalone="no"?>
<!DOCTYPE svg PUBLIC "-//W3C//DTD SVG 20010904//EN"
 "http://www.w3.org/TR/2001/REC-SVG-20010904/DTD/svg10.dtd">
<svg version="1.0" xmlns="http://www.w3.org/2000/svg"
 width="188.000000pt" height="188.000000pt" viewBox="0 0 188.000000 188.000000"
 preserveAspectRatio="xMidYMid meet">

<g transform="translate(0.000000,188.000000) scale(0.100000,-0.100000)"
fill="#000000" stroke="none">
<path d="M715 1752 c-99 -43 -263 -114 -365 -157 -102 -43 -197 -87 -212 -97
l-28 -19 0 -510 c0 -445 2 -514 16 -541 11 -22 35 -39 87 -63 40 -18 210 -96
379 -174 233 -107 317 -141 348 -141 41 0 98 24 510 213 254 116 308 144 320
166 6 13 10 195 10 526 l0 507 -27 25 c-24 21 -198 99 -498 223 -38 16 -119
49 -180 74 -61 26 -125 46 -145 46 -21 -1 -106 -31 -215 -78z m585 -247 c102
-42 175 -77 175 -85 0 -7 -45 -32 -100 -55 -352 -148 -426 -177 -442 -172 -19
6 -290 119 -437 183 -49 22 -91 44 -93 50 -3 9 75 44 391 174 l139 57 96 -40
c53 -22 175 -73 271 -112z m-801 -329 c108 -46 231 -100 274 -119 l77 -36 0
-370 c0 -204 -3 -371 -6 -371 -11 0 -535 231 -551 243 -18 13 -19 737 -2 737
7 0 100 -38 208 -84z m1101 -280 c0 -279 -3 -366 -12 -373 -7 -6 -112 -54
-233 -108 -121 -53 -244 -108 -274 -121 -29 -13 -55 -24 -57 -24 -2 0 -3 169
-2 376 l3 375 275 119 c151 65 281 119 288 119 9 1 12 -78 12 -363z"/>
</g>
</svg>
