<?xml version="1.0" standalone="no"?>
<!DOCTYPE svg PUBLIC "-//W3C//DTD SVG 20010904//EN"
 "http://www.w3.org/TR/2001/REC-SVG-20010904/DTD/svg10.dtd">
<svg version="1.0" xmlns="http://www.w3.org/2000/svg"
 width="188.000000pt" height="188.000000pt" viewBox="0 0 188.000000 188.000000"
 preserveAspectRatio="xMidYMid meet">

<g transform="translate(0.000000,188.000000) scale(0.100000,-0.100000)"
fill="#000000" stroke="none">
<path d="M1490 1510 c-225 -97 -261 -110 -304 -108 -47 3 -51 5 -76 48 -14 25
-37 51 -51 57 -16 9 -84 13 -215 13 -218 0 -218 0 -248 -81 -15 -43 -20 -47
-57 -52 -58 -8 -88 -32 -115 -92 -21 -44 -24 -66 -22 -127 l3 -73 447 -3 447
-2 3 77 3 78 35 3 c37 4 170 60 383 160 143 68 147 74 106 152 -21 40 -45 60
-71 60 -7 0 -128 -50 -268 -110z"/>
<path d="M186 1025 c-113 -40 -187 -188 -166 -333 15 -111 89 -233 158 -261
15 -7 42 -36 62 -68 19 -30 51 -67 71 -80 39 -26 126 -53 171 -53 40 0 117 28
166 61 l43 29 32 -24 c106 -78 231 -82 339 -10 l51 35 36 -25 c59 -41 111 -58
173 -57 96 1 171 44 234 131 22 30 52 57 79 70 88 42 187 187 201 293 6 40 2
56 -25 111 -39 79 -117 154 -187 179 -45 16 -105 17 -724 17 -549 -1 -682 -3
-714 -15z m393 -384 c61 -44 89 -148 57 -209 -51 -98 -166 -128 -256 -68 -56
37 -73 75 -68 152 4 68 22 97 83 136 43 27 138 21 184 -11z m409 3 c77 -45
106 -155 59 -225 -67 -100 -192 -115 -273 -33 -72 75 -70 161 5 236 46 46 50
48 106 48 45 0 69 -6 103 -26z m440 -4 c107 -79 87 -249 -34 -293 -86 -30
-145 -17 -201 46 -67 76 -49 189 39 253 46 33 147 31 196 -6z"/>
<path d="M435 544 c-24 -25 -16 -75 16 -93 24 -13 29 -13 53 2 47 31 27 107
-29 107 -13 0 -31 -7 -40 -16z"/>
<path d="M858 549 c-24 -14 -24 -71 0 -92 27 -25 58 -21 81 10 44 55 -19 119
-81 82z"/>
<path d="M1286 541 c-42 -47 13 -121 67 -92 52 28 35 111 -22 111 -15 0 -36
-9 -45 -19z"/>
</g>
</svg>
