<?xml version="1.0" standalone="no"?>
<!DOCTYPE svg PUBLIC "-//W3C//DTD SVG 20010904//EN"
 "http://www.w3.org/TR/2001/REC-SVG-20010904/DTD/svg10.dtd">
<svg version="1.0" xmlns="http://www.w3.org/2000/svg"
 width="188.000000pt" height="188.000000pt" viewBox="0 0 188.000000 188.000000"
 preserveAspectRatio="xMidYMid meet">

<g transform="translate(0.000000,188.000000) scale(0.100000,-0.100000)"
fill="#000000" stroke="none">
<path d="M265 1807 c-79 -44 -75 5 -75 -867 0 -756 1 -776 20 -808 11 -18 34
-41 52 -52 32 -19 52 -20 670 -20 713 0 697 -1 740 68 l22 36 -3 585 c-2 520
-4 589 -19 611 -29 45 -396 422 -434 446 l-38 24 -447 0 c-446 0 -448 0 -488
-23z m835 -321 c0 -169 9 -219 40 -236 10 -6 91 -10 180 -10 127 0 165 -3 176
-14 12 -12 14 -93 14 -500 l0 -486 -569 0 -569 0 -4 38 c-3 20 -5 337 -5 705
l0 667 368 0 369 0 0 -164z"/>
<path d="M655 1033 c-150 -171 -205 -238 -205 -253 0 -24 231 -284 256 -288
22 -3 74 47 74 71 0 7 -40 59 -90 116 -49 58 -90 108 -90 111 0 3 14 19 31 36
17 16 57 64 90 107 62 83 65 102 19 127 -32 17 -50 11 -85 -27z"/>
<path d="M972 1058 c-11 -15 -33 -86 -95 -318 -59 -218 -57 -206 -40 -229 16
-24 64 -28 81 -8 6 6 42 127 81 267 65 235 70 256 56 277 -17 26 -65 32 -83
11z"/>
<path d="M1131 1044 c-11 -15 -21 -34 -21 -43 0 -9 36 -59 80 -110 44 -52 80
-98 80 -102 0 -5 -40 -57 -90 -116 -95 -114 -100 -129 -58 -165 45 -39 54 -32
277 222 17 19 31 44 31 56 0 28 -225 278 -255 282 -15 2 -30 -6 -44 -24z"/>
</g>
</svg>
